<svg width="369" height="96" viewBox="0 0 369 96" fill="none" xmlns="http://www.w3.org/2000/svg">
<g filter="url(#filter0_d_1168_11828)">
<path d="M4 46.641V2.54004H10.3449V23.5527C11.2452 22.391 12.4429 21.4429 13.9378 20.7083C15.4497 19.9566 17.1739 19.5808 19.1105 19.5808C21.1151 19.5808 22.8648 20.0164 24.3597 20.8877C25.8716 21.7418 27.0438 22.9548 27.8762 24.5265C28.7086 26.0981 29.1248 27.9602 29.1248 30.1127V46.641H22.7799V31.4453C22.7799 29.2586 22.2363 27.5758 21.1491 26.3971C20.0788 25.2012 18.5924 24.6033 16.6898 24.6033C15.3817 24.6033 14.2521 24.8767 13.3008 25.4233C12.3494 25.9529 11.619 26.6704 11.1093 27.5758C10.5997 28.4642 10.3449 29.455 10.3449 30.5484V46.641H4Z" fill="white"/>
<path d="M47.4336 47.461C42.9489 47.461 39.7297 46.5385 37.7761 44.6935C35.8226 42.8314 34.8458 39.7649 34.8458 35.494V20.4008H41.1907V34.059C41.1907 37.0145 41.6578 39.1157 42.5921 40.3628C43.5435 41.6099 45.1573 42.2335 47.4336 42.2335C49.71 42.2335 51.3153 41.6099 52.2496 40.3628C53.201 39.1157 53.6766 37.0145 53.6766 34.059V20.4008H60.0215V35.494C60.0215 39.7649 59.0447 42.8314 57.0911 44.6935C55.1375 46.5385 51.9184 47.461 47.4336 47.461Z" fill="white"/>
<path d="M78.3968 47.461C76.4263 47.461 74.5661 47.1108 72.8164 46.4104C71.0837 45.6929 69.5548 44.702 68.2297 43.4378C66.9047 42.1737 65.86 40.6959 65.0955 39.0047C64.348 37.3134 63.9743 35.4855 63.9743 33.5209C63.9743 31.6246 64.3311 29.8394 65.0445 28.1652C65.775 26.474 66.7858 24.9877 68.0768 23.7064C69.3849 22.4252 70.9138 21.4173 72.6635 20.6827C74.4302 19.9481 76.3328 19.5808 78.3714 19.5808C80.0701 19.5808 81.6925 19.8285 83.2383 20.3239C84.8012 20.8193 86.0923 21.4685 87.1115 22.2714L84.8437 26.5765C83.3488 25.4319 81.5056 24.8596 79.3142 24.8596C77.5135 24.8596 75.9591 25.261 74.6511 26.064C73.343 26.8498 72.3407 27.909 71.6442 29.2415C70.9478 30.5569 70.5995 31.9834 70.5995 33.5209C70.5995 35.1438 70.9647 36.613 71.6952 37.9284C72.4257 39.2268 73.4534 40.2603 74.7785 41.0291C76.1035 41.7978 77.6324 42.1822 79.3652 42.1822C80.4354 42.1822 81.4376 42.0285 82.372 41.721C83.3233 41.4135 84.1387 40.9949 84.8182 40.4653L87.1115 44.7704C86.0753 45.5562 84.7927 46.1968 83.2638 46.6922C81.7349 47.2047 80.1126 47.461 78.3968 47.461Z" fill="white"/>
<path d="M103.797 47.461C100.977 47.461 98.4286 46.8716 96.1523 45.6929C93.8929 44.5141 92.1007 42.8741 90.7757 40.7728C89.4507 38.6716 88.7881 36.2542 88.7881 33.5209C88.7881 30.7705 89.4507 28.3531 90.7757 26.269C92.1007 24.1677 93.8929 22.5277 96.1523 21.3489C98.4116 20.1702 100.96 19.5808 103.797 19.5808C106.617 19.5808 109.156 20.1702 111.416 21.3489C113.692 22.5277 115.484 24.1677 116.792 26.269C118.117 28.3531 118.78 30.7705 118.78 33.5209C118.78 36.2542 118.117 38.6716 116.792 40.7728C115.484 42.8741 113.692 44.5141 111.416 45.6929C109.156 46.8716 106.617 47.461 103.797 47.461ZM103.797 41.9772C105.394 41.9772 106.821 41.6185 108.078 40.9009C109.352 40.1664 110.354 39.167 111.084 37.9028C111.815 36.6215 112.18 35.1609 112.18 33.5209C112.18 31.8638 111.815 30.4032 111.084 29.139C110.354 27.8577 109.352 26.8583 108.078 26.1408C106.821 25.4233 105.394 25.0646 103.797 25.0646C102.217 25.0646 100.79 25.4233 99.5158 26.1408C98.2418 26.8583 97.2395 27.8577 96.509 29.139C95.7786 30.4032 95.4133 31.8638 95.4133 33.5209C95.4133 35.1609 95.7786 36.6215 96.509 37.9028C97.2395 39.167 98.2418 40.1664 99.5158 40.9009C100.79 41.6185 102.217 41.9772 103.797 41.9772Z" fill="white"/>
</g>
<path d="M5.875 87.4609V73.1836H8.21875V87.4609H5.875ZM17.3887 76.4453C18.6061 76.4453 19.5534 76.7611 20.2305 77.3926C20.9141 78.0176 21.2559 79.0234 21.2559 80.4102V87.4609H18.9609V80.8398C18.9609 80 18.7884 79.3717 18.4434 78.9551C18.0983 78.5319 17.5645 78.3203 16.8418 78.3203C15.7936 78.3203 15.0645 78.6426 14.6543 79.2871C14.2507 79.9316 14.0488 80.8659 14.0488 82.0898V87.4609H11.7539V76.6504H13.541L13.8633 78.1152H13.9902C14.2246 77.7376 14.5143 77.4284 14.8594 77.1875C15.2109 76.9401 15.6016 76.7546 16.0312 76.6309C16.4674 76.5072 16.9199 76.4453 17.3887 76.4453ZM30.1035 76.4453C31.321 76.4453 32.2682 76.7611 32.9453 77.3926C33.6289 78.0176 33.9707 79.0234 33.9707 80.4102V87.4609H31.6758V80.8398C31.6758 80 31.5033 79.3717 31.1582 78.9551C30.8132 78.5319 30.2793 78.3203 29.5566 78.3203C28.5085 78.3203 27.7793 78.6426 27.3691 79.2871C26.9655 79.9316 26.7637 80.8659 26.7637 82.0898V87.4609H24.4688V76.6504H26.2559L26.5781 78.1152H26.7051C26.9395 77.7376 27.2292 77.4284 27.5742 77.1875C27.9258 76.9401 28.3164 76.7546 28.7461 76.6309C29.1823 76.5072 29.6348 76.4453 30.1035 76.4453ZM46.7539 82.0312C46.7539 82.9297 46.6367 83.7272 46.4023 84.4238C46.168 85.1204 45.8262 85.7096 45.377 86.1914C44.9277 86.6667 44.3874 87.0312 43.7559 87.2852C43.1243 87.5326 42.4115 87.6562 41.6172 87.6562C40.875 87.6562 40.1947 87.5326 39.5762 87.2852C38.9577 87.0312 38.4206 86.6667 37.9648 86.1914C37.5156 85.7096 37.1673 85.1204 36.9199 84.4238C36.6725 83.7272 36.5488 82.9297 36.5488 82.0312C36.5488 80.8398 36.7539 79.8307 37.1641 79.0039C37.5807 78.1706 38.1732 77.5358 38.9414 77.0996C39.7096 76.6634 40.6243 76.4453 41.6855 76.4453C42.6816 76.4453 43.5605 76.6634 44.3223 77.0996C45.084 77.5358 45.6797 78.1706 46.1094 79.0039C46.5391 79.8372 46.7539 80.8464 46.7539 82.0312ZM38.9121 82.0312C38.9121 82.819 39.0065 83.4928 39.1953 84.0527C39.3906 84.6126 39.6901 85.0423 40.0938 85.3418C40.4974 85.6348 41.0182 85.7812 41.6562 85.7812C42.2943 85.7812 42.8151 85.6348 43.2188 85.3418C43.6224 85.0423 43.9186 84.6126 44.1074 84.0527C44.2962 83.4928 44.3906 82.819 44.3906 82.0312C44.3906 81.2435 44.2962 80.5762 44.1074 80.0293C43.9186 79.4759 43.6224 79.056 43.2188 78.7695C42.8151 78.4766 42.291 78.3301 41.6465 78.3301C40.696 78.3301 40.0026 78.6491 39.5664 79.2871C39.1302 79.9251 38.9121 80.8398 38.9121 82.0312ZM51.8613 87.4609L47.75 76.6504H50.1816L52.4082 82.998C52.5514 83.4017 52.6816 83.8379 52.7988 84.3066C52.916 84.7754 52.9974 85.1693 53.043 85.4883H53.1211C53.1667 85.1562 53.2546 84.7591 53.3848 84.2969C53.515 83.8281 53.6484 83.3952 53.7852 82.998L56.0117 76.6504H58.4336L54.3223 87.4609H51.8613ZM64.3125 76.4453C65.6797 76.4453 66.7116 76.748 67.4082 77.3535C68.1113 77.959 68.4629 78.903 68.4629 80.1855V87.4609H66.832L66.3926 85.9277H66.3145C66.0085 86.3184 65.6927 86.6406 65.3672 86.8945C65.0417 87.1484 64.6641 87.3372 64.2344 87.4609C63.8112 87.5911 63.2936 87.6562 62.6816 87.6562C62.0371 87.6562 61.4609 87.5391 60.9531 87.3047C60.4453 87.0638 60.0449 86.6992 59.752 86.2109C59.459 85.7227 59.3125 85.1042 59.3125 84.3555C59.3125 83.2422 59.7259 82.4056 60.5527 81.8457C61.3861 81.2858 62.6426 80.9766 64.3223 80.918L66.1973 80.8496V80.2832C66.1973 79.5345 66.0215 79.0007 65.6699 78.6816C65.3249 78.3626 64.8366 78.2031 64.2051 78.2031C63.6647 78.2031 63.1406 78.2812 62.6328 78.4375C62.125 78.5938 61.6302 78.7858 61.1484 79.0137L60.4062 77.3926C60.9336 77.1126 61.5326 76.8848 62.2031 76.709C62.8802 76.5332 63.5833 76.4453 64.3125 76.4453ZM66.1875 82.2949L64.791 82.3438C63.6452 82.3828 62.8411 82.5781 62.3789 82.9297C61.9167 83.2812 61.6855 83.763 61.6855 84.375C61.6855 84.9089 61.8451 85.2995 62.1641 85.5469C62.4831 85.7878 62.903 85.9082 63.4238 85.9082C64.2181 85.9082 64.8757 85.6836 65.3965 85.2344C65.9238 84.7786 66.1875 84.1113 66.1875 83.2324V82.2949ZM75.6992 85.8008C75.9987 85.8008 76.2949 85.7747 76.5879 85.7227C76.8809 85.6641 77.1478 85.5957 77.3887 85.5176V87.2559C77.1348 87.3665 76.806 87.4609 76.4023 87.5391C75.9987 87.6172 75.5788 87.6562 75.1426 87.6562C74.5306 87.6562 73.9805 87.5553 73.4922 87.3535C73.0039 87.1452 72.6165 86.7904 72.3301 86.2891C72.0436 85.7878 71.9004 85.0944 71.9004 84.209V78.3984H70.4258V77.373L72.0078 76.5625L72.7598 74.248H74.2051V76.6504H77.3008V78.3984H74.2051V84.1797C74.2051 84.7266 74.3418 85.1335 74.6152 85.4004C74.8887 85.6673 75.25 85.8008 75.6992 85.8008ZM81.8809 76.6504V87.4609H79.5859V76.6504H81.8809ZM80.748 72.5098C81.0996 72.5098 81.4023 72.6042 81.6562 72.793C81.9167 72.9818 82.0469 73.3073 82.0469 73.7695C82.0469 74.2253 81.9167 74.5508 81.6562 74.7461C81.4023 74.9349 81.0996 75.0293 80.748 75.0293C80.3835 75.0293 80.0742 74.9349 79.8203 74.7461C79.5729 74.5508 79.4492 74.2253 79.4492 73.7695C79.4492 73.3073 79.5729 72.9818 79.8203 72.793C80.0742 72.6042 80.3835 72.5098 80.748 72.5098ZM94.7422 82.0312C94.7422 82.9297 94.625 83.7272 94.3906 84.4238C94.1562 85.1204 93.8145 85.7096 93.3652 86.1914C92.916 86.6667 92.3757 87.0312 91.7441 87.2852C91.1126 87.5326 90.3997 87.6562 89.6055 87.6562C88.8633 87.6562 88.1829 87.5326 87.5645 87.2852C86.946 87.0312 86.4089 86.6667 85.9531 86.1914C85.5039 85.7096 85.1556 85.1204 84.9082 84.4238C84.6608 83.7272 84.5371 82.9297 84.5371 82.0312C84.5371 80.8398 84.7422 79.8307 85.1523 79.0039C85.569 78.1706 86.1615 77.5358 86.9297 77.0996C87.6979 76.6634 88.6126 76.4453 89.6738 76.4453C90.6699 76.4453 91.5488 76.6634 92.3105 77.0996C93.0723 77.5358 93.668 78.1706 94.0977 79.0039C94.5273 79.8372 94.7422 80.8464 94.7422 82.0312ZM86.9004 82.0312C86.9004 82.819 86.9948 83.4928 87.1836 84.0527C87.3789 84.6126 87.6784 85.0423 88.082 85.3418C88.4857 85.6348 89.0065 85.7812 89.6445 85.7812C90.2826 85.7812 90.8034 85.6348 91.207 85.3418C91.6107 85.0423 91.9069 84.6126 92.0957 84.0527C92.2845 83.4928 92.3789 82.819 92.3789 82.0312C92.3789 81.2435 92.2845 80.5762 92.0957 80.0293C91.9069 79.4759 91.6107 79.056 91.207 78.7695C90.8034 78.4766 90.2793 78.3301 89.6348 78.3301C88.6842 78.3301 87.9909 78.6491 87.5547 79.2871C87.1185 79.9251 86.9004 80.8398 86.9004 82.0312ZM103.014 76.4453C104.231 76.4453 105.178 76.7611 105.855 77.3926C106.539 78.0176 106.881 79.0234 106.881 80.4102V87.4609H104.586V80.8398C104.586 80 104.413 79.3717 104.068 78.9551C103.723 78.5319 103.189 78.3203 102.467 78.3203C101.419 78.3203 100.689 78.6426 100.279 79.2871C99.8757 79.9316 99.6738 80.8659 99.6738 82.0898V87.4609H97.3789V76.6504H99.166L99.4883 78.1152H99.6152C99.8496 77.7376 100.139 77.4284 100.484 77.1875C100.836 76.9401 101.227 76.7546 101.656 76.6309C102.092 76.5072 102.545 76.4453 103.014 76.4453ZM109.762 86.25C109.762 85.7161 109.898 85.3418 110.172 85.127C110.452 84.9056 110.79 84.7949 111.188 84.7949C111.585 84.7949 111.923 84.9056 112.203 85.127C112.49 85.3418 112.633 85.7161 112.633 86.25C112.633 86.7708 112.49 87.1484 112.203 87.3828C111.923 87.6107 111.585 87.7246 111.188 87.7246C110.79 87.7246 110.452 87.6107 110.172 87.3828C109.898 87.1484 109.762 86.7708 109.762 86.25ZM125.162 73.1836C127.005 73.1836 128.349 73.5612 129.195 74.3164C130.042 75.0716 130.465 76.1296 130.465 77.4902C130.465 78.1087 130.367 78.6979 130.172 79.2578C129.983 79.8112 129.671 80.3027 129.234 80.7324C128.798 81.1556 128.222 81.4909 127.506 81.7383C126.796 81.9857 125.921 82.1094 124.879 82.1094H123.355V87.4609H121.012V73.1836H125.162ZM125.006 75.127H123.355V80.1562H124.635C125.37 80.1562 125.995 80.0716 126.51 79.9023C127.024 79.7266 127.415 79.4499 127.682 79.0723C127.949 78.6947 128.082 78.1966 128.082 77.5781C128.082 76.7513 127.831 76.1361 127.33 75.7324C126.835 75.3288 126.061 75.127 125.006 75.127ZM137.32 76.4453C138.688 76.4453 139.719 76.748 140.416 77.3535C141.119 77.959 141.471 78.903 141.471 80.1855V87.4609H139.84L139.4 85.9277H139.322C139.016 86.3184 138.701 86.6406 138.375 86.8945C138.049 87.1484 137.672 87.3372 137.242 87.4609C136.819 87.5911 136.301 87.6562 135.689 87.6562C135.045 87.6562 134.469 87.5391 133.961 87.3047C133.453 87.0638 133.053 86.6992 132.76 86.2109C132.467 85.7227 132.32 85.1042 132.32 84.3555C132.32 83.2422 132.734 82.4056 133.561 81.8457C134.394 81.2858 135.65 80.9766 137.33 80.918L139.205 80.8496V80.2832C139.205 79.5345 139.029 79.0007 138.678 78.6816C138.333 78.3626 137.844 78.2031 137.213 78.2031C136.673 78.2031 136.148 78.2812 135.641 78.4375C135.133 78.5938 134.638 78.7858 134.156 79.0137L133.414 77.3926C133.941 77.1126 134.54 76.8848 135.211 76.709C135.888 76.5332 136.591 76.4453 137.32 76.4453ZM139.195 82.2949L137.799 82.3438C136.653 82.3828 135.849 82.5781 135.387 82.9297C134.924 83.2812 134.693 83.763 134.693 84.375C134.693 84.9089 134.853 85.2995 135.172 85.5469C135.491 85.7878 135.911 85.9082 136.432 85.9082C137.226 85.9082 137.883 85.6836 138.404 85.2344C138.932 84.7786 139.195 84.1113 139.195 83.2324V82.2949ZM150.162 76.4453C150.344 76.4453 150.543 76.4551 150.758 76.4746C150.973 76.4941 151.158 76.5202 151.314 76.5527L151.1 78.7012C150.963 78.6621 150.794 78.6328 150.592 78.6133C150.396 78.5938 150.221 78.584 150.064 78.584C149.654 78.584 149.264 78.6523 148.893 78.7891C148.521 78.9193 148.193 79.1211 147.906 79.3945C147.62 79.6615 147.395 79.9967 147.232 80.4004C147.07 80.804 146.988 81.2728 146.988 81.8066V87.4609H144.684V76.6504H146.48L146.793 78.5547H146.9C147.115 78.1706 147.382 77.819 147.701 77.5C148.02 77.181 148.385 76.9271 148.795 76.7383C149.212 76.543 149.667 76.4453 150.162 76.4453ZM157.34 85.8008C157.639 85.8008 157.936 85.7747 158.229 85.7227C158.521 85.6641 158.788 85.5957 159.029 85.5176V87.2559C158.775 87.3665 158.447 87.4609 158.043 87.5391C157.639 87.6172 157.219 87.6562 156.783 87.6562C156.171 87.6562 155.621 87.5553 155.133 87.3535C154.645 87.1452 154.257 86.7904 153.971 86.2891C153.684 85.7878 153.541 85.0944 153.541 84.209V78.3984H152.066V77.373L153.648 76.5625L154.4 74.248H155.846V76.6504H158.941V78.3984H155.846V84.1797C155.846 84.7266 155.982 85.1335 156.256 85.4004C156.529 85.6673 156.891 85.8008 157.34 85.8008ZM166.861 76.4453C168.079 76.4453 169.026 76.7611 169.703 77.3926C170.387 78.0176 170.729 79.0234 170.729 80.4102V87.4609H168.434V80.8398C168.434 80 168.261 79.3717 167.916 78.9551C167.571 78.5319 167.037 78.3203 166.314 78.3203C165.266 78.3203 164.537 78.6426 164.127 79.2871C163.723 79.9316 163.521 80.8659 163.521 82.0898V87.4609H161.227V76.6504H163.014L163.336 78.1152H163.463C163.697 77.7376 163.987 77.4284 164.332 77.1875C164.684 76.9401 165.074 76.7546 165.504 76.6309C165.94 76.5072 166.393 76.4453 166.861 76.4453ZM178.248 76.4453C179.212 76.4453 180.038 76.6439 180.729 77.041C181.419 77.4382 181.949 78.0013 182.32 78.7305C182.691 79.4596 182.877 80.332 182.877 81.3477V82.5781H175.66C175.686 83.6263 175.966 84.4336 176.5 85C177.04 85.5664 177.796 85.8496 178.766 85.8496C179.456 85.8496 180.074 85.7845 180.621 85.6543C181.174 85.5176 181.744 85.319 182.33 85.0586V86.9238C181.79 87.1777 181.24 87.3633 180.68 87.4805C180.12 87.5977 179.449 87.6562 178.668 87.6562C177.607 87.6562 176.673 87.4512 175.865 87.041C175.064 86.6243 174.436 86.0059 173.98 85.1855C173.531 84.3652 173.307 83.3464 173.307 82.1289C173.307 80.918 173.512 79.8893 173.922 79.043C174.332 78.1966 174.908 77.5521 175.65 77.1094C176.393 76.6667 177.258 76.4453 178.248 76.4453ZM178.248 78.1738C177.525 78.1738 176.939 78.4082 176.49 78.877C176.048 79.3457 175.787 80.0326 175.709 80.9375H180.631C180.624 80.3971 180.533 79.9186 180.357 79.502C180.188 79.0853 179.928 78.7598 179.576 78.5254C179.231 78.291 178.788 78.1738 178.248 78.1738ZM190.943 76.4453C191.126 76.4453 191.324 76.4551 191.539 76.4746C191.754 76.4941 191.939 76.5202 192.096 76.5527L191.881 78.7012C191.744 78.6621 191.575 78.6328 191.373 78.6133C191.178 78.5938 191.002 78.584 190.846 78.584C190.436 78.584 190.045 78.6523 189.674 78.7891C189.303 78.9193 188.974 79.1211 188.688 79.3945C188.401 79.6615 188.176 79.9967 188.014 80.4004C187.851 80.804 187.77 81.2728 187.77 81.8066V87.4609H185.465V76.6504H187.262L187.574 78.5547H187.682C187.896 78.1706 188.163 77.819 188.482 77.5C188.801 77.181 189.166 76.9271 189.576 76.7383C189.993 76.543 190.449 76.4453 190.943 76.4453ZM201.363 84.375C201.363 85.0846 201.191 85.6836 200.846 86.1719C200.501 86.6602 199.996 87.0312 199.332 87.2852C198.674 87.5326 197.867 87.6562 196.91 87.6562C196.155 87.6562 195.504 87.6009 194.957 87.4902C194.417 87.3861 193.906 87.2233 193.424 87.002V85.0195C193.938 85.2604 194.514 85.4688 195.152 85.6445C195.797 85.8203 196.406 85.9082 196.979 85.9082C197.734 85.9082 198.277 85.791 198.609 85.5566C198.941 85.3158 199.107 84.9967 199.107 84.5996C199.107 84.3652 199.039 84.1569 198.902 83.9746C198.772 83.7858 198.525 83.5938 198.16 83.3984C197.802 83.1966 197.275 82.9557 196.578 82.6758C195.895 82.4023 195.318 82.1289 194.85 81.8555C194.381 81.582 194.026 81.2533 193.785 80.8691C193.544 80.4785 193.424 79.9805 193.424 79.375C193.424 78.418 193.801 77.6921 194.557 77.1973C195.318 76.696 196.324 76.4453 197.574 76.4453C198.238 76.4453 198.863 76.5137 199.449 76.6504C200.042 76.7806 200.621 76.9727 201.188 77.2266L200.465 78.9551C199.977 78.7402 199.485 78.5645 198.99 78.4277C198.502 78.2845 198.004 78.2129 197.496 78.2129C196.904 78.2129 196.451 78.304 196.139 78.4863C195.833 78.6686 195.68 78.929 195.68 79.2676C195.68 79.5215 195.755 79.7363 195.904 79.9121C196.054 80.0879 196.311 80.2637 196.676 80.4395C197.047 80.6152 197.561 80.8333 198.219 81.0938C198.863 81.3411 199.42 81.6016 199.889 81.875C200.364 82.1419 200.729 82.4707 200.982 82.8613C201.236 83.252 201.363 83.7565 201.363 84.375ZM206.139 72.2656V76.084C206.139 76.4811 206.126 76.8685 206.1 77.2461C206.08 77.6237 206.057 77.9167 206.031 78.125H206.158C206.386 77.7474 206.666 77.4382 206.998 77.1973C207.33 76.9499 207.701 76.7643 208.111 76.6406C208.528 76.5169 208.971 76.4551 209.439 76.4551C210.266 76.4551 210.969 76.5951 211.549 76.875C212.128 77.1484 212.571 77.5749 212.877 78.1543C213.189 78.7337 213.346 79.4857 213.346 80.4102V87.4609H211.051V80.8398C211.051 80 210.878 79.3717 210.533 78.9551C210.188 78.5319 209.654 78.3203 208.932 78.3203C208.235 78.3203 207.682 78.4668 207.271 78.7598C206.868 79.0462 206.578 79.4727 206.402 80.0391C206.227 80.599 206.139 81.2826 206.139 82.0898V87.4609H203.844V72.2656H206.139ZM218.854 76.6504V87.4609H216.559V76.6504H218.854ZM217.721 72.5098C218.072 72.5098 218.375 72.6042 218.629 72.793C218.889 72.9818 219.02 73.3073 219.02 73.7695C219.02 74.2253 218.889 74.5508 218.629 74.7461C218.375 74.9349 218.072 75.0293 217.721 75.0293C217.356 75.0293 217.047 74.9349 216.793 74.7461C216.546 74.5508 216.422 74.2253 216.422 73.7695C216.422 73.3073 216.546 72.9818 216.793 72.793C217.047 72.6042 217.356 72.5098 217.721 72.5098ZM227.691 76.4453C228.974 76.4453 230.003 76.9141 230.777 77.8516C231.559 78.7891 231.949 80.1823 231.949 82.0312C231.949 83.2552 231.767 84.2871 231.402 85.127C231.044 85.9603 230.54 86.5918 229.889 87.0215C229.244 87.4447 228.492 87.6562 227.633 87.6562C227.086 87.6562 226.611 87.5846 226.207 87.4414C225.803 87.2982 225.458 87.1126 225.172 86.8848C224.885 86.6504 224.645 86.3965 224.449 86.123H224.312C224.345 86.3835 224.374 86.6732 224.4 86.9922C224.433 87.3047 224.449 87.5911 224.449 87.8516V92.2559H222.145V76.6504H224.02L224.342 78.1445H224.449C224.651 77.8385 224.895 77.5553 225.182 77.2949C225.475 77.0345 225.826 76.8294 226.236 76.6797C226.653 76.5234 227.138 76.4453 227.691 76.4453ZM227.076 78.3203C226.445 78.3203 225.937 78.4473 225.553 78.7012C225.175 78.9486 224.898 79.3229 224.723 79.8242C224.553 80.3255 224.462 80.9538 224.449 81.709V82.0312C224.449 82.832 224.531 83.5124 224.693 84.0723C224.863 84.6257 225.139 85.0488 225.523 85.3418C225.914 85.6283 226.441 85.7715 227.105 85.7715C227.665 85.7715 228.128 85.6185 228.492 85.3125C228.863 85.0065 229.14 84.5703 229.322 84.0039C229.505 83.4375 229.596 82.7702 229.596 82.002C229.596 80.8366 229.387 79.9316 228.971 79.2871C228.561 78.6426 227.929 78.3203 227.076 78.3203ZM234.273 86.25C234.273 85.7161 234.41 85.3418 234.684 85.127C234.964 84.9056 235.302 84.7949 235.699 84.7949C236.096 84.7949 236.435 84.9056 236.715 85.127C237.001 85.3418 237.145 85.7161 237.145 86.25C237.145 86.7708 237.001 87.1484 236.715 87.3828C236.435 87.6107 236.096 87.7246 235.699 87.7246C235.302 87.7246 234.964 87.6107 234.684 87.3828C234.41 87.1484 234.273 86.7708 234.273 86.25ZM254.371 87.4609L252.975 83.4961H247.516L246.119 87.4609H243.648L248.961 73.125H251.559L256.861 87.4609H254.371ZM252.369 81.4844L251.012 77.5781C250.96 77.4089 250.885 77.1712 250.787 76.8652C250.689 76.5527 250.592 76.237 250.494 75.918C250.396 75.5924 250.315 75.319 250.25 75.0977C250.185 75.3646 250.104 75.6641 250.006 75.9961C249.915 76.3216 249.824 76.6276 249.732 76.9141C249.648 77.2005 249.583 77.4219 249.537 77.5781L248.17 81.4844H252.369ZM262.867 87.6562C261.845 87.6562 260.96 87.4577 260.211 87.0605C259.462 86.6634 258.886 86.0547 258.482 85.2344C258.079 84.4141 257.877 83.3724 257.877 82.1094C257.877 80.7943 258.098 79.7201 258.541 78.8867C258.984 78.0534 259.596 77.4382 260.377 77.041C261.165 76.6439 262.066 76.4453 263.082 76.4453C263.727 76.4453 264.309 76.5104 264.83 76.6406C265.357 76.7643 265.803 76.9173 266.168 77.0996L265.484 78.9355C265.087 78.7728 264.68 78.6361 264.264 78.5254C263.847 78.4147 263.447 78.3594 263.062 78.3594C262.431 78.3594 261.904 78.4993 261.48 78.7793C261.064 79.0592 260.751 79.4759 260.543 80.0293C260.341 80.5827 260.24 81.2695 260.24 82.0898C260.24 82.8841 260.344 83.5547 260.553 84.1016C260.761 84.6419 261.07 85.0521 261.48 85.332C261.891 85.6055 262.395 85.7422 262.994 85.7422C263.587 85.7422 264.117 85.6706 264.586 85.5273C265.055 85.3841 265.497 85.1986 265.914 84.9707V86.9629C265.504 87.1973 265.064 87.3698 264.596 87.4805C264.127 87.5977 263.551 87.6562 262.867 87.6562ZM272.809 87.6562C271.786 87.6562 270.901 87.4577 270.152 87.0605C269.404 86.6634 268.827 86.0547 268.424 85.2344C268.02 84.4141 267.818 83.3724 267.818 82.1094C267.818 80.7943 268.04 79.7201 268.482 78.8867C268.925 78.0534 269.537 77.4382 270.318 77.041C271.106 76.6439 272.008 76.4453 273.023 76.4453C273.668 76.4453 274.251 76.5104 274.771 76.6406C275.299 76.7643 275.745 76.9173 276.109 77.0996L275.426 78.9355C275.029 78.7728 274.622 78.6361 274.205 78.5254C273.788 78.4147 273.388 78.3594 273.004 78.3594C272.372 78.3594 271.845 78.4993 271.422 78.7793C271.005 79.0592 270.693 79.4759 270.484 80.0293C270.283 80.5827 270.182 81.2695 270.182 82.0898C270.182 82.8841 270.286 83.5547 270.494 84.1016C270.702 84.6419 271.012 85.0521 271.422 85.332C271.832 85.6055 272.337 85.7422 272.936 85.7422C273.528 85.7422 274.059 85.6706 274.527 85.5273C274.996 85.3841 275.439 85.1986 275.855 84.9707V86.9629C275.445 87.1973 275.006 87.3698 274.537 87.4805C274.068 87.5977 273.492 87.6562 272.809 87.6562ZM282.701 76.4453C283.665 76.4453 284.492 76.6439 285.182 77.041C285.872 77.4382 286.402 78.0013 286.773 78.7305C287.145 79.4596 287.33 80.332 287.33 81.3477V82.5781H280.113C280.139 83.6263 280.419 84.4336 280.953 85C281.493 85.5664 282.249 85.8496 283.219 85.8496C283.909 85.8496 284.527 85.7845 285.074 85.6543C285.628 85.5176 286.197 85.319 286.783 85.0586V86.9238C286.243 87.1777 285.693 87.3633 285.133 87.4805C284.573 87.5977 283.902 87.6562 283.121 87.6562C282.06 87.6562 281.126 87.4512 280.318 87.041C279.518 86.6243 278.889 86.0059 278.434 85.1855C277.984 84.3652 277.76 83.3464 277.76 82.1289C277.76 80.918 277.965 79.8893 278.375 79.043C278.785 78.1966 279.361 77.5521 280.104 77.1094C280.846 76.6667 281.712 76.4453 282.701 76.4453ZM282.701 78.1738C281.979 78.1738 281.393 78.4082 280.943 78.877C280.501 79.3457 280.24 80.0326 280.162 80.9375H285.084C285.077 80.3971 284.986 79.9186 284.811 79.502C284.641 79.0853 284.381 78.7598 284.029 78.5254C283.684 78.291 283.242 78.1738 282.701 78.1738ZM292.223 87.4609H289.918V72.2656H292.223V87.4609ZM299.811 76.4453C300.774 76.4453 301.601 76.6439 302.291 77.041C302.981 77.4382 303.512 78.0013 303.883 78.7305C304.254 79.4596 304.439 80.332 304.439 81.3477V82.5781H297.223C297.249 83.6263 297.529 84.4336 298.062 85C298.603 85.5664 299.358 85.8496 300.328 85.8496C301.018 85.8496 301.637 85.7845 302.184 85.6543C302.737 85.5176 303.307 85.319 303.893 85.0586V86.9238C303.352 87.1777 302.802 87.3633 302.242 87.4805C301.682 87.5977 301.012 87.6562 300.23 87.6562C299.169 87.6562 298.235 87.4512 297.428 87.041C296.627 86.6243 295.999 86.0059 295.543 85.1855C295.094 84.3652 294.869 83.3464 294.869 82.1289C294.869 80.918 295.074 79.8893 295.484 79.043C295.895 78.1966 296.471 77.5521 297.213 77.1094C297.955 76.6667 298.821 76.4453 299.811 76.4453ZM299.811 78.1738C299.088 78.1738 298.502 78.4082 298.053 78.877C297.61 79.3457 297.35 80.0326 297.271 80.9375H302.193C302.187 80.3971 302.096 79.9186 301.92 79.502C301.751 79.0853 301.49 78.7598 301.139 78.5254C300.794 78.291 300.351 78.1738 299.811 78.1738ZM312.506 76.4453C312.688 76.4453 312.887 76.4551 313.102 76.4746C313.316 76.4941 313.502 76.5202 313.658 76.5527L313.443 78.7012C313.307 78.6621 313.137 78.6328 312.936 78.6133C312.74 78.5938 312.564 78.584 312.408 78.584C311.998 78.584 311.607 78.6523 311.236 78.7891C310.865 78.9193 310.536 79.1211 310.25 79.3945C309.964 79.6615 309.739 79.9967 309.576 80.4004C309.413 80.804 309.332 81.2728 309.332 81.8066V87.4609H307.027V76.6504H308.824L309.137 78.5547H309.244C309.459 78.1706 309.726 77.819 310.045 77.5C310.364 77.181 310.729 76.9271 311.139 76.7383C311.555 76.543 312.011 76.4453 312.506 76.4453ZM319.898 76.4453C321.266 76.4453 322.298 76.748 322.994 77.3535C323.697 77.959 324.049 78.903 324.049 80.1855V87.4609H322.418L321.979 85.9277H321.9C321.594 86.3184 321.279 86.6406 320.953 86.8945C320.628 87.1484 320.25 87.3372 319.82 87.4609C319.397 87.5911 318.88 87.6562 318.268 87.6562C317.623 87.6562 317.047 87.5391 316.539 87.3047C316.031 87.0638 315.631 86.6992 315.338 86.2109C315.045 85.7227 314.898 85.1042 314.898 84.3555C314.898 83.2422 315.312 82.4056 316.139 81.8457C316.972 81.2858 318.229 80.9766 319.908 80.918L321.783 80.8496V80.2832C321.783 79.5345 321.607 79.0007 321.256 78.6816C320.911 78.3626 320.423 78.2031 319.791 78.2031C319.251 78.2031 318.727 78.2812 318.219 78.4375C317.711 78.5938 317.216 78.7858 316.734 79.0137L315.992 77.3926C316.52 77.1126 317.118 76.8848 317.789 76.709C318.466 76.5332 319.169 76.4453 319.898 76.4453ZM321.773 82.2949L320.377 82.3438C319.231 82.3828 318.427 82.5781 317.965 82.9297C317.503 83.2812 317.271 83.763 317.271 84.375C317.271 84.9089 317.431 85.2995 317.75 85.5469C318.069 85.7878 318.489 85.9082 319.01 85.9082C319.804 85.9082 320.462 85.6836 320.982 85.2344C321.51 84.7786 321.773 84.1113 321.773 83.2324V82.2949ZM331.285 85.8008C331.585 85.8008 331.881 85.7747 332.174 85.7227C332.467 85.6641 332.734 85.5957 332.975 85.5176V87.2559C332.721 87.3665 332.392 87.4609 331.988 87.5391C331.585 87.6172 331.165 87.6562 330.729 87.6562C330.117 87.6562 329.566 87.5553 329.078 87.3535C328.59 87.1452 328.202 86.7904 327.916 86.2891C327.63 85.7878 327.486 85.0944 327.486 84.209V78.3984H326.012V77.373L327.594 76.5625L328.346 74.248H329.791V76.6504H332.887V78.3984H329.791V84.1797C329.791 84.7266 329.928 85.1335 330.201 85.4004C330.475 85.6673 330.836 85.8008 331.285 85.8008ZM337.467 76.6504V87.4609H335.172V76.6504H337.467ZM336.334 72.5098C336.686 72.5098 336.988 72.6042 337.242 72.793C337.503 72.9818 337.633 73.3073 337.633 73.7695C337.633 74.2253 337.503 74.5508 337.242 74.7461C336.988 74.9349 336.686 75.0293 336.334 75.0293C335.969 75.0293 335.66 74.9349 335.406 74.7461C335.159 74.5508 335.035 74.2253 335.035 73.7695C335.035 73.3073 335.159 72.9818 335.406 72.793C335.66 72.6042 335.969 72.5098 336.334 72.5098ZM350.328 82.0312C350.328 82.9297 350.211 83.7272 349.977 84.4238C349.742 85.1204 349.4 85.7096 348.951 86.1914C348.502 86.6667 347.962 87.0312 347.33 87.2852C346.699 87.5326 345.986 87.6562 345.191 87.6562C344.449 87.6562 343.769 87.5326 343.15 87.2852C342.532 87.0312 341.995 86.6667 341.539 86.1914C341.09 85.7096 340.742 85.1204 340.494 84.4238C340.247 83.7272 340.123 82.9297 340.123 82.0312C340.123 80.8398 340.328 79.8307 340.738 79.0039C341.155 78.1706 341.747 77.5358 342.516 77.0996C343.284 76.6634 344.199 76.4453 345.26 76.4453C346.256 76.4453 347.135 76.6634 347.896 77.0996C348.658 77.5358 349.254 78.1706 349.684 79.0039C350.113 79.8372 350.328 80.8464 350.328 82.0312ZM342.486 82.0312C342.486 82.819 342.581 83.4928 342.77 84.0527C342.965 84.6126 343.264 85.0423 343.668 85.3418C344.072 85.6348 344.592 85.7812 345.23 85.7812C345.868 85.7812 346.389 85.6348 346.793 85.3418C347.197 85.0423 347.493 84.6126 347.682 84.0527C347.87 83.4928 347.965 82.819 347.965 82.0312C347.965 81.2435 347.87 80.5762 347.682 80.0293C347.493 79.4759 347.197 79.056 346.793 78.7695C346.389 78.4766 345.865 78.3301 345.221 78.3301C344.27 78.3301 343.577 78.6491 343.141 79.2871C342.704 79.9251 342.486 80.8398 342.486 82.0312ZM358.6 76.4453C359.817 76.4453 360.764 76.7611 361.441 77.3926C362.125 78.0176 362.467 79.0234 362.467 80.4102V87.4609H360.172V80.8398C360.172 80 359.999 79.3717 359.654 78.9551C359.309 78.5319 358.775 78.3203 358.053 78.3203C357.005 78.3203 356.275 78.6426 355.865 79.2871C355.462 79.9316 355.26 80.8659 355.26 82.0898V87.4609H352.965V76.6504H354.752L355.074 78.1152H355.201C355.436 77.7376 355.725 77.4284 356.07 77.1875C356.422 76.9401 356.812 76.7546 357.242 76.6309C357.678 76.5072 358.131 76.4453 358.6 76.4453ZM365.348 86.25C365.348 85.7161 365.484 85.3418 365.758 85.127C366.038 84.9056 366.376 84.7949 366.773 84.7949C367.171 84.7949 367.509 84.9056 367.789 85.127C368.076 85.3418 368.219 85.7161 368.219 86.25C368.219 86.7708 368.076 87.1484 367.789 87.3828C367.509 87.6107 367.171 87.7246 366.773 87.7246C366.376 87.7246 366.038 87.6107 365.758 87.3828C365.484 87.1484 365.348 86.7708 365.348 86.25Z" fill="white"/>
<defs>
<filter id="filter0_d_1168_11828" x="0.971017" y="0.612505" width="120.838" height="50.9789" filterUnits="userSpaceOnUse" color-interpolation-filters="sRGB">
<feFlood flood-opacity="0" result="BackgroundImageFix"/>
<feColorMatrix in="SourceAlpha" type="matrix" values="0 0 0 0 0 0 0 0 0 0 0 0 0 0 0 0 0 0 127 0" result="hardAlpha"/>
<feOffset dy="1.10145"/>
<feGaussianBlur stdDeviation="1.51449"/>
<feComposite in2="hardAlpha" operator="out"/>
<feColorMatrix type="matrix" values="0 0 0 0 0 0 0 0 0 0 0 0 0 0 0 0 0 0 0.07 0"/>
<feBlend mode="normal" in2="BackgroundImageFix" result="effect1_dropShadow_1168_11828"/>
<feBlend mode="normal" in="SourceGraphic" in2="effect1_dropShadow_1168_11828" result="shape"/>
</filter>
</defs>
</svg>
