<svg width="120" height="50" viewBox="0 0 120 50" fill="none" xmlns="http://www.w3.org/2000/svg">
<path d="M26.9993 5.79832L25.0014 11.8012C24.8009 12.502 24.5581 13.1738 24.2718 13.815C23.9721 14.4909 23.6258 15.1339 23.2334 15.74C22.4191 17.0045 21.4101 18.1163 20.2213 19.0589C19.3134 19.7787 18.3015 20.3992 17.191 20.9136C16.82 21.085 16.4552 21.2369 16.1011 21.372C15.3595 21.653 14.6628 21.8586 14.0469 22.0097C12.718 22.3337 11.7694 22.4007 11.5862 22.4111L5.2695 23.0184C5.29956 22.3456 5.36629 21.675 5.47073 21.0094L11.4675 20.433C11.475 20.4318 11.7872 20.4155 12.3055 20.3357C12.8798 20.2476 13.7074 20.0826 14.6546 19.7784C15.2112 19.5996 15.809 19.3725 16.4217 19.0853C18.9062 17.921 20.7744 16.2014 22.0005 13.9542C22.3981 13.2271 22.7282 12.4452 22.9901 11.6091C23.0291 11.4867 23.0655 11.3626 23.1015 11.2378L23.1143 11.1963L24.9994 5.53569C25.6699 5.58562 26.338 5.67357 26.9993 5.79832Z" fill="#D73252"/>
<path d="M16.2026 7.03487L17.997 10.7909C18.3831 11.5998 18.5776 12.4799 18.5579 13.3359C18.5335 14.4244 18.1902 15.2457 17.5374 15.7741C17.53 15.7799 17.5234 15.7852 17.5167 15.7905C17.0487 16.1615 16.2032 16.5393 14.8129 16.2786C14.0241 16.1311 13.2726 15.8105 12.5795 15.3282L8.93838 12.7919C9.33425 12.2662 9.76232 11.7582 10.2215 11.2713L13.7117 13.7021C14.1735 14.0234 14.6668 14.2355 15.1783 14.3309C15.6877 14.4267 16.0906 14.3927 16.285 14.2385L16.2887 14.2356C16.5252 14.0433 16.5708 13.5616 16.5765 13.291C16.5894 12.7438 16.4617 12.1743 16.2087 11.644L14.4367 7.93291C15.0133 7.59859 15.6032 7.29939 16.2026 7.03487Z" fill="#E04966"/>
<path d="M37.1014 11.4005L33.8863 14.3843C33.7749 14.4882 33.6586 14.5876 33.5396 14.682C32.9614 15.1404 32.3069 15.4812 31.6247 15.6777C30.5772 15.9784 29.6923 15.895 28.9925 15.43C28.4954 15.0992 27.867 14.4054 27.6993 12.9804C27.6053 12.1831 27.6865 11.3698 27.9415 10.5644L29.2637 6.37466C29.8924 6.57692 30.511 6.81495 31.1171 7.08578L29.8302 11.1607C29.6608 11.6973 29.6065 12.2316 29.667 12.7483C29.7281 13.2658 29.8814 13.6415 30.0898 13.7797C30.3429 13.9487 30.8167 13.8476 31.0771 13.7736C31.6023 13.622 32.1087 13.3313 32.5383 12.9317L35.682 10.0142C36.1761 10.446 36.6499 10.9084 37.1014 11.4005Z" fill="#E04966"/>
<path d="M16.1015 21.3717C16.3399 21.6679 16.5766 21.9847 16.8092 22.3205C18.437 24.6758 19.3053 27.2624 19.3929 29.9515C19.416 30.6701 19.3833 31.3943 19.2942 32.1248C19.2138 32.7918 19.0859 33.4627 18.9107 34.1362L17.3755 41.1113L15.9634 40.5452L15.581 40.3667L15.5565 40.3296L16.9883 33.6569C17.0055 33.589 17.0233 33.5219 17.0393 33.4539C17.2554 32.5769 17.3808 31.713 17.4159 30.8628C17.5239 28.2654 16.7886 25.7997 15.2191 23.5042C14.8363 22.9455 14.4367 22.446 14.0472 22.0095C13.3851 21.2654 12.7549 20.703 12.3058 20.3354C11.9001 20.0045 11.6401 19.8314 11.6326 19.8265L11.5933 19.7998L6.84382 16.3471C7.11496 15.7384 7.42023 15.1423 7.75916 14.563L12.741 18.1842C12.8925 18.2857 13.6758 18.8242 14.6549 19.7781C15.1095 20.2208 15.6063 20.7517 16.1015 21.3717Z" fill="#D73252"/>
<path d="M14.4974 26.9227C14.7906 27.7101 14.67 28.5907 14.1391 29.5414C13.7914 30.1614 13.3104 30.721 12.7322 31.1794C12.6132 31.2738 12.4899 31.3643 12.3632 31.4491L8.40301 34.1158L7.37913 32.4159L11.2563 29.8054C11.7434 29.4782 12.1419 29.0515 12.4093 28.5746C12.5407 28.338 12.7471 27.8998 12.6404 27.6148C12.5533 27.3804 12.2225 27.1454 11.7326 26.9679C11.2433 26.7911 10.7106 26.7222 10.1496 26.7648L5.54436 27.1146C5.42565 26.4622 5.34306 25.8052 5.29761 25.1465L9.99968 24.7898C10.8419 24.7253 11.6523 24.8317 12.4072 25.1049C13.7564 25.5933 14.2887 26.3633 14.4974 26.9227Z" fill="#E04966"/>
<path d="M38.4831 13.0931C38.8814 13.6442 39.2445 14.21 39.5733 14.7886L35.0577 19.0527C35.0533 19.0562 34.9188 19.1736 34.6979 19.3946C34.3326 19.76 33.7308 20.4118 33.1008 21.3014C32.7205 21.8377 32.3297 22.4594 31.9736 23.1584C30.7447 25.5691 30.3212 28.0373 30.7028 30.5294C30.8345 31.3834 31.0605 32.241 31.3811 33.0994C31.4252 33.2173 31.4706 33.3354 31.5188 33.4537L31.5348 33.4952L33.5662 39.2451C32.9964 39.6137 32.4132 39.9473 31.8179 40.2459L29.6737 34.1761C29.3794 33.445 29.1448 32.7087 28.9715 31.9707C28.7989 31.2382 28.6869 30.5047 28.6332 29.7718C28.4449 27.1986 28.9838 24.633 30.2448 22.1883C30.4775 21.7377 30.7218 21.3153 30.9684 20.9247C31.3951 20.248 31.8293 19.6642 32.2255 19.1814C32.9975 18.2371 33.6216 17.6772 33.7494 17.565L38.4831 13.0931Z" fill="#D73252"/>
<path d="M41.9526 23.5208C41.9625 24.1848 41.9382 24.8482 41.8767 25.5086L37.4184 25.743C36.8569 25.7728 36.3369 25.9082 35.874 26.1475C35.4113 26.3856 35.1128 26.662 35.0566 26.904C34.9874 27.2009 35.2477 27.6098 35.4087 27.8265C35.7354 28.2658 36.1854 28.6375 36.7105 28.9003L40.5698 30.8325C40.3195 31.4416 40.0356 32.0387 39.7177 32.6219L35.8227 30.6722C35.0216 30.2707 34.3284 29.6956 33.8176 29.0073C33.1691 28.1332 32.9365 27.2749 33.1265 26.456C33.2623 25.874 33.6907 25.043 34.9668 24.3852C35.6809 24.0178 36.47 23.8087 37.3139 23.7645L41.9526 23.5208Z" fill="#E04966"/>
<path d="M38.2625 34.8788C37.862 35.4095 37.4294 35.9223 36.9656 36.414L31.4949 33.1694C31.4949 33.1694 31.4536 33.1432 31.3815 33.0992C31.084 32.9185 30.2164 32.424 28.9719 31.9706C28.3108 31.729 27.5429 31.4986 26.6996 31.334C24.056 30.8183 21.5759 31.0845 19.2945 32.1251C18.5195 32.4795 17.7679 32.9226 17.0395 33.4543C16.9185 33.543 16.7971 33.6344 16.6767 33.7287L16.6408 33.7547L11.3635 37.509C10.8693 37.0664 10.3948 36.5925 9.94336 36.0884L15.4746 32.1532C16.1005 31.6654 16.7492 31.2354 17.4161 30.8631C18.0585 30.5055 18.7182 30.2016 19.3932 29.9518C21.8234 29.0533 24.4491 28.8631 27.1576 29.4044C27.6788 29.5089 28.1727 29.6338 28.6336 29.7717C29.4259 30.0056 30.1236 30.2736 30.7032 30.5293C31.7598 30.9932 32.4272 31.4128 32.5653 31.502L38.2625 34.8788Z" fill="#D73252"/>
<path d="M19.662 41.755L20.5348 37.1016C20.6997 36.2207 21.063 35.3957 21.5834 34.7157C22.2454 33.8513 23.007 33.3919 23.8461 33.3492C24.4433 33.3188 25.3602 33.5033 26.3429 34.5484C26.8925 35.1337 27.3111 35.8348 27.5861 36.6342L29.1956 41.3159L27.2735 41.8164L25.7124 37.2794C25.5295 36.7465 25.2558 36.2844 24.8992 35.9061C24.5423 35.5257 24.1951 35.3157 23.9459 35.3278C23.6426 35.3431 23.3207 35.7056 23.1562 35.9203C22.8232 36.3553 22.5908 36.8899 22.4819 37.4663L21.617 42.0749L19.662 41.755Z" fill="#E04966"/>
<path d="M51.3818 36.1218V9.76416H55.175V22.3227C55.7132 21.6284 56.4292 21.0618 57.3229 20.6227C58.2268 20.1735 59.2576 19.9489 60.4153 19.9489C61.6137 19.9489 62.6597 20.2092 63.5534 20.7299C64.4573 21.2404 65.158 21.9654 65.6557 22.9047C66.1533 23.8441 66.4021 24.957 66.4021 26.2435V36.1218H62.609V27.0399C62.609 25.7329 62.284 24.7272 61.634 24.0227C60.9942 23.308 60.1056 22.9507 58.9681 22.9507C58.1862 22.9507 57.5108 23.114 56.9421 23.4407C56.3734 23.7573 55.9367 24.1861 55.632 24.7272C55.3273 25.2582 55.175 25.8504 55.175 26.5038V36.1218H51.3818Z" fill="black"/>
<path d="M77.3477 36.6119C74.6665 36.6119 72.742 36.0606 71.5741 34.9579C70.4062 33.845 69.8223 32.0122 69.8223 29.4597V20.4389H73.6154V28.602C73.6154 30.3684 73.8947 31.6242 74.4533 32.3696C75.022 33.1149 75.9868 33.4876 77.3477 33.4876C78.7085 33.4876 79.6682 33.1149 80.2268 32.3696C80.7955 31.6242 81.0799 30.3684 81.0799 28.602V20.4389H84.873V29.4597C84.873 32.0122 84.2891 33.845 83.1212 34.9579C81.9533 36.0606 80.0288 36.6119 77.3477 36.6119Z" fill="black"/>
<path d="M95.8583 36.6119C94.6802 36.6119 93.5682 36.4026 92.5222 35.984C91.4863 35.5552 90.5723 34.963 89.7801 34.2074C88.988 33.4519 88.3634 32.5687 87.9064 31.5579C87.4595 30.5471 87.2361 29.4546 87.2361 28.2804C87.2361 27.1471 87.4494 26.0801 87.8759 25.0795C88.3126 24.0687 88.9169 23.1804 89.6887 22.4146C90.4707 21.6489 91.3847 21.0465 92.4308 20.6074C93.487 20.1684 94.6244 19.9489 95.8431 19.9489C96.8586 19.9489 97.8285 20.0969 98.7527 20.393C99.687 20.6891 100.459 21.0771 101.068 21.557L99.7124 24.1299C98.8187 23.4459 97.7168 23.1038 96.4067 23.1038C95.3302 23.1038 94.401 23.3438 93.619 23.8236C92.837 24.2933 92.2378 24.9263 91.8214 25.7227C91.405 26.5089 91.1968 27.3615 91.1968 28.2804C91.1968 29.2504 91.4152 30.1284 91.8519 30.9146C92.2886 31.6906 92.903 32.3083 93.6951 32.7678C94.4873 33.2272 95.4013 33.457 96.4372 33.457C97.077 33.457 97.6762 33.3651 98.2347 33.1813C98.8035 32.9975 99.2909 32.7474 99.6972 32.4308L101.068 35.0038C100.449 35.4735 99.6819 35.8564 98.7679 36.1525C97.8539 36.4588 96.884 36.6119 95.8583 36.6119Z" fill="black"/>
<path d="M111.043 36.6119C109.357 36.6119 107.834 36.2597 106.473 35.5552C105.122 34.8507 104.051 33.8705 103.259 32.6146C102.467 31.3588 102.07 29.914 102.07 28.2804C102.07 26.6365 102.467 25.1918 103.259 23.9462C104.051 22.6903 105.122 21.7101 106.473 21.0056C107.824 20.3011 109.347 19.9489 111.043 19.9489C112.729 19.9489 114.247 20.3011 115.598 21.0056C116.959 21.7101 118.03 22.6903 118.812 23.9462C119.604 25.1918 120 26.6365 120 28.2804C120 29.914 119.604 31.3588 118.812 32.6146C118.03 33.8705 116.959 34.8507 115.598 35.5552C114.247 36.2597 112.729 36.6119 111.043 36.6119ZM111.043 33.3345C111.998 33.3345 112.851 33.12 113.602 32.6912C114.364 32.2522 114.963 31.6549 115.4 30.8993C115.837 30.1335 116.055 29.2606 116.055 28.2804C116.055 27.29 115.837 26.417 115.4 25.6615C114.963 24.8957 114.364 24.2984 113.602 23.8696C112.851 23.4407 111.998 23.2263 111.043 23.2263C110.099 23.2263 109.246 23.4407 108.484 23.8696C107.722 24.2984 107.123 24.8957 106.686 25.6615C106.25 26.417 106.031 27.29 106.031 28.2804C106.031 29.2606 106.25 30.1335 106.686 30.8993C107.123 31.6549 107.722 32.2522 108.484 32.6912C109.246 33.12 110.099 33.3345 111.043 33.3345Z" fill="black"/>
<path d="M41.443 19.512C41.602 20.1698 41.7235 20.8332 41.8082 21.5005L35.0105 21.3719C34.3619 21.3876 33.7253 21.3638 33.1012 21.3011C32.3729 21.2284 31.6615 21.1025 30.9688 20.9244C28.3124 20.2407 25.9431 18.7924 23.9853 16.6313C23.7155 16.3335 23.4652 16.0346 23.234 15.7399C22.7392 15.1112 22.3307 14.5019 22.0011 13.9541C21.2956 12.7832 20.9499 11.8978 20.8857 11.7272L18.5521 6.18553C19.1995 5.99975 19.8553 5.85188 20.5143 5.73997L22.7299 11.0007L22.7379 11.0244C22.7405 11.0308 22.8215 11.2483 22.9907 11.6091C23.2317 12.1211 23.6496 12.9216 24.2724 13.8149C24.6187 14.3109 25.0258 14.8335 25.5003 15.353C27.393 17.4213 29.6466 18.7025 32.226 19.1811C33.0195 19.3286 33.8447 19.4004 34.6983 19.3943C34.7929 19.3951 34.8878 19.3933 34.9821 19.3908L35.0265 19.3906L41.443 19.512Z" fill="#D73252"/>
</svg>
